<svg width="27" height="27" viewBox="0 0 27 27" fill="none" xmlns="http://www.w3.org/2000/svg">
<path d="M9 3.375V7.875V3.375ZM13.5 7.875V3.375V7.875ZM18 3.375V7.875V3.375ZM9 12.375H18H9ZM9 16.875H13.5H9ZM6.75 23.625H20.25C20.8467 23.625 21.419 23.3879 21.841 22.966C22.2629 22.544 22.5 21.9717 22.5 21.375V7.875C22.5 7.27826 22.2629 6.70597 21.841 6.28401C21.419 5.86205 20.8467 5.625 20.25 5.625H6.75C6.15326 5.625 5.58097 5.86205 5.15901 6.28401C4.73705 6.70597 4.5 7.27826 4.5 7.875V21.375C4.5 21.9717 4.73705 22.544 5.15901 22.966C5.58097 23.3879 6.15326 23.625 6.75 23.625Z" stroke="#828282" stroke-width="1.5" stroke-linecap="round" stroke-linejoin="round"/>
</svg>
