<svg width="22" height="12" viewBox="0 0 22 12" fill="none" xmlns="http://www.w3.org/2000/svg">
<path d="M6.05 12C4.36333 12 2.93333 11.4182 1.76 10.2545C0.586667 9.09091 0 7.67273 0 6C0 4.32727 0.586667 2.90909 1.76 1.74546C2.93333 0.581819 4.36333 0 6.05 0H17.6C18.81 0 19.8458 0.427273 20.7075 1.28182C21.5692 2.13636 22 3.16364 22 4.36364C22 5.56364 21.5692 6.59091 20.7075 7.44545C19.8458 8.3 18.81 8.72727 17.6 8.72727H7.15C6.38 8.72727 5.72917 8.46364 5.1975 7.93636C4.66583 7.40909 4.4 6.76364 4.4 6C4.4 5.23636 4.66583 4.59091 5.1975 4.06364C5.72917 3.53636 6.38 3.27273 7.15 3.27273H16.775C17.0133 3.27273 17.2106 3.34982 17.3668 3.504C17.5223 3.65891 17.6 3.85455 17.6 4.09091C17.6 4.32727 17.5223 4.52255 17.3668 4.67673C17.2106 4.83164 17.0133 4.90909 16.775 4.90909H7.15C6.83833 4.90909 6.57727 5.01345 6.3668 5.22218C6.1556 5.43164 6.05 5.69091 6.05 6C6.05 6.30909 6.1556 6.568 6.3668 6.77673C6.57727 6.98618 6.83833 7.09091 7.15 7.09091H17.6C18.37 7.09091 19.0208 6.82727 19.5525 6.3C20.0842 5.77273 20.35 5.12727 20.35 4.36364C20.35 3.6 20.0842 2.95455 19.5525 2.42727C19.0208 1.9 18.37 1.63636 17.6 1.63636H6.05C4.84 1.63636 3.80417 2.06364 2.9425 2.91818C2.08083 3.77273 1.65 4.8 1.65 6C1.65 7.2 2.08083 8.22727 2.9425 9.08182C3.80417 9.93636 4.84 10.3636 6.05 10.3636H16.775C17.0133 10.3636 17.2106 10.4407 17.3668 10.5949C17.5223 10.7498 17.6 10.9455 17.6 11.1818C17.6 11.4182 17.5223 11.6138 17.3668 11.7687C17.2106 11.9229 17.0133 12 16.775 12H6.05Z" fill="#222B3C"/>
</svg>
