<svg width="7" height="7" viewBox="0 0 7 7" fill="none" xmlns="http://www.w3.org/2000/svg">
<path d="M5.82576 0.866836C5.94241 0.750537 6.09763 0.686242 6.25867 0.687519C6.41972 0.688795 6.57399 0.755542 6.68894 0.873676C6.80389 0.991811 6.87053 1.15209 6.87478 1.3207C6.87904 1.4893 6.82059 1.65305 6.71176 1.77738L3.40791 6.10463C3.3511 6.16872 3.28253 6.22014 3.20631 6.25584C3.13009 6.29154 3.04777 6.31077 2.96429 6.31239C2.88081 6.31401 2.79787 6.29798 2.72044 6.26526C2.64301 6.23254 2.57267 6.18381 2.51363 6.12197L0.322658 3.8274C0.261643 3.76786 0.212705 3.69606 0.178762 3.61628C0.144819 3.5365 0.126568 3.45037 0.125097 3.36305C0.123625 3.27572 0.138965 3.18898 0.170199 3.10799C0.201433 3.02701 0.247923 2.95344 0.306894 2.89168C0.365866 2.82992 0.436111 2.78123 0.513439 2.74852C0.590768 2.71581 0.673595 2.69974 0.75698 2.70129C0.840366 2.70283 0.9226 2.72194 0.998779 2.75749C1.07496 2.79304 1.14352 2.84429 1.20037 2.90819L2.93427 4.72321L5.81003 0.885915C5.81521 0.879238 5.82074 0.872869 5.82659 0.866836H5.82576Z" fill="#2670CD"/>
</svg>
