<svg width="19" height="19" viewBox="0 0 19 19" fill="none" xmlns="http://www.w3.org/2000/svg">
<path d="M17.4168 16.3612C17.4168 17.5223 16.4668 18.4723 15.3057 18.4723H3.69461C2.5335 18.4723 1.5835 17.5223 1.5835 16.3612V7.38894C1.5835 6.22783 2.5335 5.27783 3.69461 5.27783H15.3057C16.4668 5.27783 17.4168 6.22783 17.4168 7.38894V16.3612Z" fill="#FDD888"/>
<path d="M19 5.80545C19 6.96656 18.05 7.91656 16.8889 7.91656H2.11111C0.95 7.91656 0 6.96656 0 5.80545C0 4.64434 0.95 3.69434 2.11111 3.69434H16.8889C18.05 3.69434 19 4.64434 19 5.80545Z" fill="#FDD888"/>
<path d="M1.5835 7.91675H17.4168V8.9723H1.5835V7.91675Z" fill="#FCAB40"/>
<path d="M10.0276 1.58325H8.97201C8.55208 1.58325 8.14935 1.75007 7.85242 2.047C7.55549 2.34393 7.38867 2.74666 7.38867 3.16659V18.4721H11.6109V3.16659C11.6109 2.74666 11.4441 2.34393 11.1471 2.047C10.8502 1.75007 10.4475 1.58325 10.0276 1.58325Z" fill="#DA2F47"/>
<path d="M8.44458 3.69442C9.02514 3.69442 9.11117 3.42208 8.63511 3.08906L5.08739 0.605334C4.97854 0.526075 4.85404 0.470932 4.72219 0.44358C4.59035 0.416227 4.45419 0.417295 4.32279 0.446711C4.19139 0.476127 4.06777 0.533216 3.96018 0.614172C3.85258 0.695127 3.76348 0.79809 3.69881 0.916195L2.63481 2.77819C2.34664 3.28222 2.58625 3.69442 3.16681 3.69442H8.44458ZM10.5557 3.69442C9.97514 3.69442 9.88911 3.42208 10.3652 3.08906L13.9134 0.605334C14.0223 0.526159 14.1468 0.471087 14.2786 0.443782C14.4105 0.416476 14.5466 0.417565 14.678 0.446976C14.8093 0.476386 14.9329 0.533444 15.0405 0.614349C15.1481 0.695255 15.2373 0.798154 15.302 0.916195L16.366 2.77767C16.6536 3.28222 16.414 3.69442 15.8335 3.69442H10.5557Z" fill="#DA2F47"/>
</svg>
