<svg width="26" height="26" viewBox="0 0 26 26" fill="none" xmlns="http://www.w3.org/2000/svg">
<path d="M8.05 19C6.36333 19 4.93333 18.4182 3.76 17.2545C2.58667 16.0909 2 14.6727 2 13C2 11.3273 2.58667 9.90909 3.76 8.74546C4.93333 7.58182 6.36333 7 8.05 7H19.6C20.81 7 21.8458 7.42727 22.7075 8.28182C23.5692 9.13636 24 10.1636 24 11.3636C24 12.5636 23.5692 13.5909 22.7075 14.4455C21.8458 15.3 20.81 15.7273 19.6 15.7273H9.15C8.38 15.7273 7.72917 15.4636 7.1975 14.9364C6.66583 14.4091 6.4 13.7636 6.4 13C6.4 12.2364 6.66583 11.5909 7.1975 11.0636C7.72917 10.5364 8.38 10.2727 9.15 10.2727H18.775C19.0133 10.2727 19.2106 10.3498 19.3668 10.504C19.5223 10.6589 19.6 10.8545 19.6 11.0909C19.6 11.3273 19.5223 11.5225 19.3668 11.6767C19.2106 11.8316 19.0133 11.9091 18.775 11.9091H9.15C8.83833 11.9091 8.57727 12.0135 8.3668 12.2222C8.1556 12.4316 8.05 12.6909 8.05 13C8.05 13.3091 8.1556 13.568 8.3668 13.7767C8.57727 13.9862 8.83833 14.0909 9.15 14.0909H19.6C20.37 14.0909 21.0208 13.8273 21.5525 13.3C22.0842 12.7727 22.35 12.1273 22.35 11.3636C22.35 10.6 22.0842 9.95455 21.5525 9.42727C21.0208 8.9 20.37 8.63636 19.6 8.63636H8.05C6.84 8.63636 5.80417 9.06364 4.9425 9.91818C4.08083 10.7727 3.65 11.8 3.65 13C3.65 14.2 4.08083 15.2273 4.9425 16.0818C5.80417 16.9364 6.84 17.3636 8.05 17.3636H18.775C19.0133 17.3636 19.2106 17.4407 19.3668 17.5949C19.5223 17.7498 19.6 17.9455 19.6 18.1818C19.6 18.4182 19.5223 18.6138 19.3668 18.7687C19.2106 18.9229 19.0133 19 18.775 19H8.05Z" fill="#222B3C"/>
</svg>
