<svg width="23" height="23" viewBox="0 0 23 23" fill="none" xmlns="http://www.w3.org/2000/svg">
<g clip-path="url(#clip0_6_594)">
<path d="M12.9375 7.90625C12.9375 7.71563 12.8618 7.53281 12.727 7.39802C12.5922 7.26323 12.4094 7.1875 12.2188 7.1875C12.0281 7.1875 11.8453 7.26323 11.7105 7.39802C11.5757 7.53281 11.5 7.71563 11.5 7.90625V10.0625H9.34375C9.15313 10.0625 8.97031 10.1382 8.83552 10.273C8.70073 10.4078 8.625 10.5906 8.625 10.7812C8.625 10.9719 8.70073 11.1547 8.83552 11.2895C8.97031 11.4243 9.15313 11.5 9.34375 11.5H11.5V13.6562C11.5 13.8469 11.5757 14.0297 11.7105 14.1645C11.8453 14.2993 12.0281 14.375 12.2188 14.375C12.4094 14.375 12.5922 14.2993 12.727 14.1645C12.8618 14.0297 12.9375 13.8469 12.9375 13.6562V11.5H15.0938C15.2844 11.5 15.4672 11.4243 15.602 11.2895C15.7368 11.1547 15.8125 10.9719 15.8125 10.7812C15.8125 10.5906 15.7368 10.4078 15.602 10.273C15.4672 10.1382 15.2844 10.0625 15.0938 10.0625H12.9375V7.90625Z" fill="white"/>
<path d="M0.71875 1.4375C0.528126 1.4375 0.345309 1.51323 0.210517 1.64802C0.0757252 1.78281 0 1.96563 0 2.15625C0 2.34687 0.0757252 2.52969 0.210517 2.66448C0.345309 2.79927 0.528126 2.875 0.71875 2.875H2.31437L2.89081 5.18506L5.04419 16.6635C5.07502 16.8282 5.16243 16.977 5.29131 17.0841C5.42019 17.1911 5.58243 17.2498 5.75 17.25H7.1875C6.425 17.25 5.69374 17.5529 5.15457 18.0921C4.6154 18.6312 4.3125 19.3625 4.3125 20.125C4.3125 20.8875 4.6154 21.6188 5.15457 22.1579C5.69374 22.6971 6.425 23 7.1875 23C7.95 23 8.68126 22.6971 9.22043 22.1579C9.7596 21.6188 10.0625 20.8875 10.0625 20.125C10.0625 19.3625 9.7596 18.6312 9.22043 18.0921C8.68126 17.5529 7.95 17.25 7.1875 17.25H17.25C16.4875 17.25 15.7562 17.5529 15.2171 18.0921C14.6779 18.6312 14.375 19.3625 14.375 20.125C14.375 20.8875 14.6779 21.6188 15.2171 22.1579C15.7562 22.6971 16.4875 23 17.25 23C18.0125 23 18.7438 22.6971 19.2829 22.1579C19.8221 21.6188 20.125 20.8875 20.125 20.125C20.125 19.3625 19.8221 18.6312 19.2829 18.0921C18.7438 17.5529 18.0125 17.25 17.25 17.25H18.6875C18.8551 17.2498 19.0173 17.1911 19.1462 17.0841C19.2751 16.977 19.3625 16.8282 19.3933 16.6635L21.5496 5.1635C21.569 5.05977 21.5653 4.95303 21.5388 4.85087C21.5123 4.74871 21.4637 4.65364 21.3963 4.57241C21.3289 4.49117 21.2445 4.42577 21.149 4.38085C21.0535 4.33594 20.9493 4.3126 20.8438 4.3125H4.15438L3.57219 1.98231C3.53339 1.82675 3.44369 1.68863 3.31736 1.58991C3.19103 1.49119 3.03533 1.43754 2.875 1.4375H0.71875ZM6.34656 15.8125L4.45913 5.75H19.9784L18.0909 15.8125H6.34656ZM8.625 20.125C8.625 20.5062 8.47355 20.8719 8.20397 21.1415C7.93438 21.411 7.56875 21.5625 7.1875 21.5625C6.80625 21.5625 6.44062 21.411 6.17103 21.1415C5.90145 20.8719 5.75 20.5062 5.75 20.125C5.75 19.7438 5.90145 19.3781 6.17103 19.1085C6.44062 18.839 6.80625 18.6875 7.1875 18.6875C7.56875 18.6875 7.93438 18.839 8.20397 19.1085C8.47355 19.3781 8.625 19.7438 8.625 20.125ZM18.6875 20.125C18.6875 20.5062 18.536 20.8719 18.2665 21.1415C17.9969 21.411 17.6312 21.5625 17.25 21.5625C16.8688 21.5625 16.5031 21.411 16.2335 21.1415C15.964 20.8719 15.8125 20.5062 15.8125 20.125C15.8125 19.7438 15.964 19.3781 16.2335 19.1085C16.5031 18.839 16.8688 18.6875 17.25 18.6875C17.6312 18.6875 17.9969 18.839 18.2665 19.1085C18.536 19.3781 18.6875 19.7438 18.6875 20.125Z" fill="white"/>
</g>
<defs>
<clipPath id="clip0_6_594">
<rect width="23" height="23" fill="white"/>
</clipPath>
</defs>
</svg>
