<svg width="16" height="16" viewBox="0 0 16 16" fill="none" xmlns="http://www.w3.org/2000/svg">
<path d="M12.1347 3.31882C12.3421 3.11207 12.618 2.99776 12.9043 3.00003C13.1906 3.0023 13.4649 3.12096 13.6692 3.33098C13.8736 3.541 13.992 3.82594 13.9996 4.12569C14.0072 4.42543 13.9033 4.71653 13.7098 4.93756L7.83628 12.6305C7.73529 12.7444 7.61339 12.8358 7.47788 12.8993C7.34238 12.9627 7.19604 12.9969 7.04763 12.9998C6.89922 13.0027 6.75177 12.9742 6.61412 12.916C6.47646 12.8579 6.35141 12.7712 6.24646 12.6613L2.35139 8.58205C2.24292 8.4762 2.15592 8.34855 2.09558 8.20672C2.03523 8.06489 2.00279 7.91178 2.00017 7.75653C1.99756 7.60128 2.02483 7.44707 2.08035 7.30309C2.13588 7.15912 2.21853 7.02834 2.32337 6.91854C2.42821 6.80875 2.55309 6.72219 2.69056 6.66404C2.82803 6.60588 2.97528 6.57732 3.12352 6.58006C3.27176 6.5828 3.41796 6.61678 3.55338 6.67998C3.68881 6.74318 3.8107 6.83429 3.91177 6.94789L6.99426 10.1746L12.1067 3.35274C12.1159 3.34087 12.1258 3.32954 12.1362 3.31882H12.1347Z" fill="#2F80ED"/>
</svg>
