<svg width="26" height="26" viewBox="0 0 26 26" fill="none" xmlns="http://www.w3.org/2000/svg">
<path d="M13 22.625C10.4473 22.625 7.99913 21.6109 6.1941 19.8059C4.38906 18.0009 3.375 15.5527 3.375 13C3.375 10.4473 4.38906 7.99913 6.1941 6.1941C7.99913 4.38906 10.4473 3.375 13 3.375C15.5527 3.375 18.0009 4.38906 19.8059 6.1941C21.6109 7.99913 22.625 10.4473 22.625 13C22.625 15.5527 21.6109 18.0009 19.8059 19.8059C18.0009 21.6109 15.5527 22.625 13 22.625ZM13 24C15.9174 24 18.7153 22.8411 20.7782 20.7782C22.8411 18.7153 24 15.9174 24 13C24 10.0826 22.8411 7.28473 20.7782 5.22183C18.7153 3.15893 15.9174 2 13 2C10.0826 2 7.28473 3.15893 5.22183 5.22183C3.15893 7.28473 2 10.0826 2 13C2 15.9174 3.15893 18.7153 5.22183 20.7782C7.28473 22.8411 10.0826 24 13 24V24Z" fill="#222B3C"/>
<path d="M7.89183 15.1546C8.04973 15.0635 8.23738 15.0388 8.4135 15.0859C8.58962 15.1331 8.73978 15.2483 8.83095 15.4062C9.25323 16.1382 9.8609 16.746 10.5928 17.1684C11.3247 17.5909 12.1549 17.813 13 17.8125C13.845 17.813 14.6752 17.5909 15.4071 17.1684C16.139 16.746 16.7467 16.1382 17.169 15.4062C17.2138 15.3274 17.2737 15.2583 17.3454 15.2027C17.417 15.1472 17.499 15.1063 17.5865 15.0826C17.674 15.0588 17.7653 15.0526 17.8552 15.0643C17.9451 15.076 18.0318 15.1053 18.1104 15.1507C18.1889 15.196 18.2577 15.2564 18.3127 15.3284C18.3678 15.4005 18.4081 15.4827 18.4313 15.5703C18.4544 15.658 18.4601 15.7494 18.4478 15.8392C18.4355 15.929 18.4056 16.0155 18.3597 16.0938C17.8167 17.0347 17.0355 17.8161 16.0946 18.3592C15.1537 18.9023 14.0863 19.188 13 19.1875C11.9136 19.188 10.8462 18.9023 9.9053 18.3592C8.9644 17.8161 8.18316 17.0347 7.6402 16.0938C7.54904 15.9358 7.52433 15.7482 7.57152 15.5721C7.61871 15.396 7.73393 15.2458 7.89183 15.1546ZM11.625 10.9375C11.625 12.076 11.009 13 10.25 13C9.49095 13 8.87495 12.076 8.87495 10.9375C8.87495 9.799 9.49095 8.875 10.25 8.875C11.009 8.875 11.625 9.799 11.625 10.9375ZM17.125 10.9375C17.125 12.076 16.509 13 15.75 13C14.991 13 14.375 12.076 14.375 10.9375C14.375 9.799 14.991 8.875 15.75 8.875C16.509 8.875 17.125 9.799 17.125 10.9375Z" fill="#222B3C"/>
</svg>
