<svg width="18" height="18" viewBox="0 0 18 18" fill="none" xmlns="http://www.w3.org/2000/svg">
<path d="M2 6.416L8.77982 10.11C8.84783 10.147 8.92335 10.1664 9 10.1664C9.07665 10.1664 9.15217 10.147 9.22018 10.11L16 6.41667V12.8333C16 13.3868 15.7979 13.9192 15.4351 14.3215C15.0723 14.7238 14.5763 14.9653 14.0489 14.9967L13.9318 15H4.06818C3.53991 15 3.03165 14.7883 2.64767 14.4082C2.26369 14.0281 2.03309 13.5085 2.00318 12.956L2 12.8333V6.416ZM4.06818 3H13.9318C14.4601 2.99996 14.9683 3.2117 15.3523 3.59178C15.7363 3.97186 15.9669 4.49146 15.9968 5.044L16 5.16667V5.28933L9 9.10267L2 5.28933V5.16667C1.99997 4.61324 2.20208 4.08078 2.56488 3.67851C2.92768 3.27624 3.42367 3.03467 3.95109 3.00333L4.06818 3H13.9318H4.06818Z" fill="#2F80ED"/>
</svg>
