<svg width="27" height="27" viewBox="0 0 27 27" fill="none" xmlns="http://www.w3.org/2000/svg">
<path d="M23.625 12.375V21.375C23.625 21.9717 23.3879 22.544 22.966 22.966C22.544 23.3879 21.9717 23.625 21.375 23.625H5.625C5.02826 23.625 4.45597 23.3879 4.03401 22.966C3.61205 22.544 3.375 21.9717 3.375 21.375V5.625C3.375 5.02826 3.61205 4.45597 4.03401 4.03401C4.45597 3.61205 5.02826 3.375 5.625 3.375H14.625" stroke="#828282" stroke-width="1.5" stroke-linecap="round" stroke-linejoin="round"/>
<path d="M24.75 5.625H18M9.5625 11.25C10.0101 11.25 10.4393 11.0722 10.7557 10.7557C11.0722 10.4393 11.25 10.0101 11.25 9.5625C11.25 9.11495 11.0722 8.68572 10.7557 8.36926C10.4393 8.05279 10.0101 7.875 9.5625 7.875C9.11495 7.875 8.68572 8.05279 8.36926 8.36926C8.05279 8.68572 7.875 9.11495 7.875 9.5625C7.875 10.0101 8.05279 10.4393 8.36926 10.7557C8.68572 11.0722 9.11495 11.25 9.5625 11.25ZM23.625 16.875L18 11.25L5.625 23.625L23.625 16.875ZM21.375 2.25V9V2.25Z" stroke="#828282" stroke-width="1.5" stroke-linecap="round" stroke-linejoin="round"/>
</svg>
