<svg width="26" height="26" viewBox="0 0 26 26" fill="none" xmlns="http://www.w3.org/2000/svg">
<path d="M14.9704 1.03636C14.1496 0.807001 13.5033 1.38922 13.2804 1.95379L13.039 2.56664C11.1763 7.29307 9.47606 11.6109 5.04213 13.8553C4.01978 14.3734 3.30756 15.4942 3.51185 16.7209L3.89813 19.0386C4.0063 19.6884 4.29658 20.2942 4.73527 20.7857C5.17397 21.2771 5.74306 21.634 6.37649 21.815L13.5172 23.8541C14.3481 24.0915 15.2191 24.1545 16.0755 24.0392C16.9319 23.9239 17.7553 23.6327 18.4938 23.1839C19.2323 22.7352 19.87 22.1386 20.3669 21.4316C20.8638 20.7246 21.2092 19.9225 21.3813 19.0757L22.5216 13.4616C22.6244 12.9558 22.6135 12.4335 22.4896 11.9324C22.3658 11.4314 22.1321 10.9641 21.8055 10.5645C21.4789 10.1648 21.0676 9.84277 20.6012 9.62163C20.1349 9.40048 19.6252 9.28577 19.1091 9.28579H17.0968C17.4172 7.89014 17.5648 6.29857 17.4191 4.89364C17.2473 3.25007 16.6214 1.496 14.9704 1.03636V1.03636Z" fill="#222B3C"/>
</svg>
