<svg width="27" height="27" viewBox="0 0 27 27" fill="none" xmlns="http://www.w3.org/2000/svg">
<path d="M13.4999 5.04004C12.6499 5.04004 11.8191 5.29208 11.1123 5.7643C10.4056 6.23651 9.85479 6.90769 9.52952 7.69296C9.20425 8.47822 9.11915 9.34231 9.28497 10.1759C9.45079 11.0096 9.86009 11.7753 10.4611 12.3763C11.0621 12.9773 11.8279 13.3866 12.6615 13.5525C13.4951 13.7183 14.3592 13.6332 15.1445 13.3079C15.9297 12.9826 16.6009 12.4318 17.0731 11.7251C17.5453 11.0184 17.7974 10.1875 17.7974 9.33754C17.7974 8.19777 17.3446 7.10469 16.5387 6.29875C15.7327 5.49281 14.6397 5.04004 13.4999 5.04004ZM13.4999 12.135C12.9466 12.135 12.4057 11.971 11.9457 11.6636C11.4856 11.3562 11.1271 10.9193 10.9153 10.4081C10.7036 9.89692 10.6482 9.33444 10.7561 8.79177C10.8641 8.24911 11.1305 7.75065 11.5218 7.35941C11.913 6.96817 12.4115 6.70173 12.9541 6.59379C13.4968 6.48585 14.0593 6.54125 14.5705 6.75299C15.0816 6.96472 15.5185 7.32329 15.8259 7.78333C16.1333 8.24338 16.2974 8.78425 16.2974 9.33754C16.2954 10.0782 15.9998 10.7878 15.4754 11.3108C14.951 11.8338 14.2405 12.1275 13.4999 12.1275V12.135Z" fill="#828282"/>
<path d="M22.3274 10.1175C21.8185 10.1033 21.3139 10.0201 20.8274 9.86999V10.2975C20.8274 13.3425 19.0124 16.05 17.6849 18.03L17.4149 18.4275C16.1249 20.3625 14.4149 22.53 13.4924 23.6025C12.6074 22.53 10.8599 20.3625 9.56991 18.4275L9.31491 18C7.98741 16.02 6.16491 13.3125 6.16491 10.2675C6.16946 9.00637 6.49942 7.76777 7.12286 6.67152C7.74631 5.57528 8.64214 4.65849 9.72368 4.00987C10.8052 3.36125 12.0359 3.00274 13.2965 2.96904C14.5572 2.93534 15.8053 3.22758 16.9199 3.81749C16.9796 3.3018 17.1109 2.79694 17.3099 2.31749C15.9631 1.66701 14.4728 1.37002 12.9795 1.4545C11.4862 1.53898 10.039 2.00215 8.77414 2.80038C7.50927 3.59862 6.46838 4.70565 5.74948 6.01725C5.03059 7.32884 4.65735 8.80182 4.66491 10.2975C4.66491 13.8 6.62991 16.7325 8.06991 18.87L8.33241 19.26C9.76512 21.3365 11.3021 23.339 12.9374 25.26L13.5074 25.9275L14.0774 25.26C15.7125 23.3389 17.2495 21.3363 18.6824 19.26L18.9449 18.8625C20.3774 16.725 22.3424 13.8 22.3424 10.2975C22.3349 10.2375 22.3274 10.1775 22.3274 10.1175Z" fill="#828282"/>
<path d="M22.5 8.25C24.5711 8.25 26.25 6.57107 26.25 4.5C26.25 2.42893 24.5711 0.75 22.5 0.75C20.4289 0.75 18.75 2.42893 18.75 4.5C18.75 6.57107 20.4289 8.25 22.5 8.25Z" fill="#828282"/>
</svg>
