<svg width="18" height="18" viewBox="0 0 18 18" fill="none" xmlns="http://www.w3.org/2000/svg">
<path d="M11.4358 12.0825L12.6958 10.8225C12.8655 10.6549 13.0802 10.5402 13.3139 10.4923C13.5475 10.4443 13.7901 10.4653 14.012 10.5525L15.5477 11.1656C15.772 11.2567 15.9643 11.4121 16.1005 11.6123C16.2366 11.8125 16.3105 12.0486 16.3127 12.2906V15.1031C16.3114 15.2678 16.2767 15.4306 16.2109 15.5815C16.145 15.7325 16.0493 15.8685 15.9295 15.9815C15.8097 16.0945 15.6682 16.1821 15.5137 16.239C15.3591 16.2959 15.1946 16.3209 15.0302 16.3125C4.26954 15.6431 2.09829 6.53065 1.68767 3.04315C1.66861 2.87189 1.68602 2.69853 1.73877 2.53448C1.79152 2.37044 1.8784 2.21942 1.9937 2.09136C2.10901 1.96331 2.25012 1.86111 2.40776 1.79151C2.56539 1.7219 2.73598 1.68647 2.90829 1.68752H5.62517C5.86761 1.68824 6.10429 1.76147 6.30478 1.8978C6.50526 2.03413 6.66037 2.22732 6.75017 2.45252L7.36329 3.98815C7.45343 4.20925 7.47643 4.45201 7.42941 4.6861C7.38239 4.9202 7.26744 5.13525 7.09892 5.3044L5.83892 6.5644C5.83892 6.5644 6.56454 11.475 11.4358 12.0825Z" fill="#2F80ED"/>
</svg>
