<svg width="8" height="8" viewBox="0 0 8 8" fill="none" xmlns="http://www.w3.org/2000/svg">
<path d="M0.906136 0.906136C1.02334 0.788967 1.18228 0.723145 1.34801 0.723145C1.51374 0.723145 1.67268 0.788967 1.78989 0.906136L3.99989 3.11614L6.20989 0.906136C6.32776 0.792287 6.48564 0.729291 6.64951 0.730715C6.81338 0.732139 6.97014 0.797869 7.08602 0.913749C7.2019 1.02963 7.26763 1.18639 7.26906 1.35026C7.27048 1.51413 7.20748 1.67201 7.09364 1.78989L4.88364 3.99989L7.09364 6.20989C7.20748 6.32776 7.27048 6.48564 7.26906 6.64951C7.26763 6.81338 7.2019 6.97014 7.08602 7.08602C6.97014 7.2019 6.81338 7.26763 6.64951 7.26906C6.48564 7.27048 6.32776 7.20748 6.20989 7.09364L3.99989 4.88364L1.78989 7.09364C1.67201 7.20748 1.51413 7.27048 1.35026 7.26906C1.18639 7.26763 1.02963 7.2019 0.913749 7.08602C0.797869 6.97014 0.732139 6.81338 0.730715 6.64951C0.729291 6.48564 0.792287 6.32776 0.906136 6.20989L3.11614 3.99989L0.906136 1.78989C0.788967 1.67268 0.723145 1.51374 0.723145 1.34801C0.723145 1.18228 0.788967 1.02334 0.906136 0.906136Z" fill="white"/>
</svg>
