<svg width="48" height="48" viewBox="0 0 48 48" fill="none" xmlns="http://www.w3.org/2000/svg">
<rect x="0.5" y="0.5" width="47" height="47" rx="7.5" fill="white" stroke="#E0E0E0"/>
<g clip-path="url(#clip0_682_252)">
<path d="M17.125 15.25C16.7935 15.25 16.4755 15.3817 16.2411 15.6161C16.0067 15.8505 15.875 16.1685 15.875 16.5V17.75C15.875 18.0815 16.0067 18.3995 16.2411 18.6339C16.4755 18.8683 16.7935 19 17.125 19H17.75V30.25C17.75 30.913 18.0134 31.5489 18.4822 32.0178C18.9511 32.4866 19.587 32.75 20.25 32.75H27.75C28.413 32.75 29.0489 32.4866 29.5178 32.0178C29.9866 31.5489 30.25 30.913 30.25 30.25V19H30.875C31.2065 19 31.5245 18.8683 31.7589 18.6339C31.9933 18.3995 32.125 18.0815 32.125 17.75V16.5C32.125 16.1685 31.9933 15.8505 31.7589 15.6161C31.5245 15.3817 31.2065 15.25 30.875 15.25H26.5C26.5 14.9185 26.3683 14.6005 26.1339 14.3661C25.8995 14.1317 25.5815 14 25.25 14H22.75C22.4185 14 22.1005 14.1317 21.8661 14.3661C21.6317 14.6005 21.5 14.9185 21.5 15.25H17.125ZM20.875 20.25C21.0408 20.25 21.1997 20.3158 21.3169 20.4331C21.4342 20.5503 21.5 20.7092 21.5 20.875V29.625C21.5 29.7908 21.4342 29.9497 21.3169 30.0669C21.1997 30.1842 21.0408 30.25 20.875 30.25C20.7092 30.25 20.5503 30.1842 20.4331 30.0669C20.3158 29.9497 20.25 29.7908 20.25 29.625V20.875C20.25 20.7092 20.3158 20.5503 20.4331 20.4331C20.5503 20.3158 20.7092 20.25 20.875 20.25ZM24 20.25C24.1658 20.25 24.3247 20.3158 24.4419 20.4331C24.5592 20.5503 24.625 20.7092 24.625 20.875V29.625C24.625 29.7908 24.5592 29.9497 24.4419 30.0669C24.3247 30.1842 24.1658 30.25 24 30.25C23.8342 30.25 23.6753 30.1842 23.5581 30.0669C23.4408 29.9497 23.375 29.7908 23.375 29.625V20.875C23.375 20.7092 23.4408 20.5503 23.5581 20.4331C23.6753 20.3158 23.8342 20.25 24 20.25ZM27.75 20.875V29.625C27.75 29.7908 27.6842 29.9497 27.5669 30.0669C27.4497 30.1842 27.2908 30.25 27.125 30.25C26.9592 30.25 26.8003 30.1842 26.6831 30.0669C26.5658 29.9497 26.5 29.7908 26.5 29.625V20.875C26.5 20.7092 26.5658 20.5503 26.6831 20.4331C26.8003 20.3158 26.9592 20.25 27.125 20.25C27.2908 20.25 27.4497 20.3158 27.5669 20.4331C27.6842 20.5503 27.75 20.7092 27.75 20.875Z" fill="#333333"/>
</g>
<defs>
<clipPath id="clip0_682_252">
<rect width="20" height="20" fill="white" transform="translate(14 14)"/>
</clipPath>
</defs>
</svg>
