<svg width="30" height="30" viewBox="0 0 30 30" fill="none" xmlns="http://www.w3.org/2000/svg">
<path d="M23.0357 16.0714C24.5986 16.0714 26.0975 16.6923 27.2026 17.7974C28.3077 18.9025 28.9286 20.4014 28.9286 21.9643C28.9286 23.5272 28.3077 25.026 27.2026 26.1312C26.0975 27.2363 24.5986 27.8572 23.0357 27.8572C21.4729 27.8572 19.974 27.2363 18.8689 26.1312C17.7637 25.026 17.1429 23.5272 17.1429 21.9643C17.1429 20.4014 17.7637 18.9025 18.8689 17.7974C19.974 16.6923 21.4729 16.0714 23.0357 16.0714ZM23.0357 18.2143L22.9393 18.2218C22.8323 18.2413 22.7337 18.293 22.6568 18.37C22.5798 18.4469 22.5282 18.5455 22.5086 18.6525L22.5 18.75V21.4286H19.8193L19.7229 21.4372C19.6158 21.4567 19.5173 21.5084 19.4404 21.5853C19.3634 21.6623 19.3117 21.7608 19.2922 21.8679L19.2836 21.9643L19.2922 22.0607C19.3117 22.1678 19.3634 22.2663 19.4404 22.3433C19.5173 22.4202 19.6158 22.4719 19.7229 22.4914L19.8193 22.5H22.5V25.1818L22.5086 25.2782C22.5282 25.3853 22.5798 25.4838 22.6568 25.5608C22.7337 25.6377 22.8323 25.6894 22.9393 25.7089L23.0357 25.7175L23.1322 25.7089C23.2392 25.6894 23.3378 25.6377 23.4147 25.5608C23.4916 25.4838 23.5433 25.3853 23.5629 25.2782L23.5715 25.1818V22.5L26.2543 22.5011L26.3507 22.4925C26.4578 22.473 26.5563 22.4213 26.6333 22.3443C26.7102 22.2674 26.7619 22.1688 26.7815 22.0618L26.79 21.9654L26.7815 21.8689C26.7618 21.7617 26.71 21.6631 26.6328 21.5861C26.5557 21.5092 26.4569 21.4576 26.3497 21.4382L26.2532 21.4297H23.5715V18.7511L23.5629 18.6547C23.5435 18.5474 23.4919 18.4486 23.415 18.3715C23.338 18.2943 23.2394 18.2425 23.1322 18.2229L23.0357 18.2143ZM25.4465 6.96429C26.028 6.9641 26.5901 7.17417 27.029 7.55577C27.4679 7.93736 27.754 8.46476 27.8347 9.04072L27.8518 9.21001L27.8572 9.37501V16.9393C26.6274 15.7601 25.0079 15.0726 23.3054 15.0069C21.6028 14.9413 19.9353 15.5021 18.6183 16.5831C17.3014 17.6642 16.4264 19.1905 16.1591 20.8732C15.8917 22.5559 16.2505 24.2783 17.1675 25.7143H4.5536C3.94275 25.7144 3.35465 25.4825 2.90815 25.0657C2.46165 24.6488 2.19005 24.078 2.14824 23.4686L2.14288 23.3036V11.2489L10.9361 11.25L11.1461 11.2404C11.5647 11.204 11.9666 11.0588 12.3118 10.8193L12.479 10.6907L16.9511 6.96429H25.4465Z" fill="#2F80ED"/>
<path d="M10.9361 4.28571C11.429 4.28571 11.909 4.43678 12.3118 4.71642L12.479 4.84499L14.7322 6.72106L11.4504 9.45642L11.3593 9.52178C11.2647 9.58077 11.1589 9.61945 11.0486 9.63535L10.935 9.64285L2.14288 9.64178V6.69642C2.14281 6.08557 2.37463 5.49747 2.79149 5.05097C3.20836 4.60447 3.77918 4.33287 4.3886 4.29106L4.5536 4.28571H10.9361Z" fill="#2F80ED"/>
</svg>
