<svg width="34" height="34" viewBox="0 0 34 34" fill="none" xmlns="http://www.w3.org/2000/svg">
<circle cx="17" cy="17" r="17" fill="#2F80ED"/>
<path d="M18.5 17C20.3409 17 21.8333 15.5076 21.8333 13.6667C21.8333 11.8257 20.3409 10.3333 18.5 10.3333C16.659 10.3333 15.1666 11.8257 15.1666 13.6667C15.1666 15.5076 16.659 17 18.5 17Z" fill="white"/>
<path d="M18.5 23.6667C18.5 23.6667 25.1667 23.6667 25.1667 22C25.1667 20 21.9167 17.8333 18.5 17.8333C15.0834 17.8333 11.8334 20 11.8334 22C11.8334 23.6667 18.5 23.6667 18.5 23.6667Z" fill="white"/>
<path d="M11 15.3333V12.8333H9.33337V15.3333H6.83337V17H9.33337V19.5H11V17H13.5V15.3333H11Z" fill="white"/>
</svg>
