<svg width="14" height="17" viewBox="0 0 14 17" fill="none" xmlns="http://www.w3.org/2000/svg">
<path d="M1.07692 1.13333C0.791305 1.13333 0.517386 1.25274 0.315423 1.46528C0.113461 1.67782 0 1.96609 0 2.26667V3.4C0 3.70058 0.113461 3.98885 0.315423 4.20139C0.517386 4.41393 0.791305 4.53333 1.07692 4.53333H1.61538V14.7333C1.61538 15.3345 1.84231 15.911 2.24623 16.3361C2.65016 16.7612 3.198 17 3.76923 17H10.2308C10.802 17 11.3498 16.7612 11.7538 16.3361C12.1577 15.911 12.3846 15.3345 12.3846 14.7333V4.53333H12.9231C13.2087 4.53333 13.4826 4.41393 13.6846 4.20139C13.8865 3.98885 14 3.70058 14 3.4V2.26667C14 1.96609 13.8865 1.67782 13.6846 1.46528C13.4826 1.25274 13.2087 1.13333 12.9231 1.13333H9.15385C9.15385 0.832755 9.04039 0.544487 8.83842 0.331946C8.63646 0.119404 8.36254 0 8.07692 0L5.92308 0C5.63746 0 5.36354 0.119404 5.16158 0.331946C4.95962 0.544487 4.84615 0.832755 4.84615 1.13333H1.07692ZM4.30769 5.66667C4.4505 5.66667 4.58746 5.72637 4.68844 5.83264C4.78942 5.93891 4.84615 6.08304 4.84615 6.23333V14.1667C4.84615 14.317 4.78942 14.4611 4.68844 14.5674C4.58746 14.6736 4.4505 14.7333 4.30769 14.7333C4.16488 14.7333 4.02792 14.6736 3.92694 14.5674C3.82596 14.4611 3.76923 14.317 3.76923 14.1667V6.23333C3.76923 6.08304 3.82596 5.93891 3.92694 5.83264C4.02792 5.72637 4.16488 5.66667 4.30769 5.66667ZM7 5.66667C7.14281 5.66667 7.27977 5.72637 7.38075 5.83264C7.48173 5.93891 7.53846 6.08304 7.53846 6.23333V14.1667C7.53846 14.317 7.48173 14.4611 7.38075 14.5674C7.27977 14.6736 7.14281 14.7333 7 14.7333C6.85719 14.7333 6.72023 14.6736 6.61925 14.5674C6.51827 14.4611 6.46154 14.317 6.46154 14.1667V6.23333C6.46154 6.08304 6.51827 5.93891 6.61925 5.83264C6.72023 5.72637 6.85719 5.66667 7 5.66667ZM10.2308 6.23333V14.1667C10.2308 14.317 10.174 14.4611 10.0731 14.5674C9.97208 14.6736 9.83512 14.7333 9.69231 14.7333C9.5495 14.7333 9.41254 14.6736 9.31156 14.5674C9.21058 14.4611 9.15385 14.317 9.15385 14.1667V6.23333C9.15385 6.08304 9.21058 5.93891 9.31156 5.83264C9.41254 5.72637 9.5495 5.66667 9.69231 5.66667C9.83512 5.66667 9.97208 5.72637 10.0731 5.83264C10.174 5.93891 10.2308 6.08304 10.2308 6.23333Z" fill="#4F4F4F"/>
</svg>
