<svg width="50" height="50" viewBox="0 0 50 50" fill="none" xmlns="http://www.w3.org/2000/svg">
<rect width="50" height="50" rx="25" fill="#F1CC0D"/>
<path d="M17.7059 17.5C17.7059 16.837 17.9662 16.2011 18.4295 15.7322C18.8928 15.2634 19.5212 15 20.1765 15H28.8235C29.4788 15 30.1072 15.2634 30.5705 15.7322C31.0338 16.2011 31.2941 16.837 31.2941 17.5V26.25H35V28.75C35 29.7446 34.6096 30.6984 33.9146 31.4017C33.2196 32.1049 32.277 32.5 31.2941 32.5H25.6118C25.8127 32.1033 25.9745 31.6867 26.0972 31.25H30.0588V17.5C30.0588 17.1685 29.9287 16.8505 29.697 16.6161C29.4654 16.3817 29.1511 16.25 28.8235 16.25H20.1765C19.8489 16.25 19.5346 16.3817 19.303 16.6161C19.0713 16.8505 18.9412 17.1685 18.9412 17.5V22.5275C18.5232 22.5658 18.1097 22.6432 17.7059 22.7587V17.5ZM26.9706 23.75H23.4661C22.8692 23.3249 22.2084 22.9999 21.5094 22.7875C21.5653 22.6993 21.6422 22.6268 21.7331 22.5765C21.824 22.5263 21.9259 22.5 22.0294 22.5H26.9706C27.1344 22.5 27.2915 22.5658 27.4073 22.6831C27.5232 22.8003 27.5882 22.9592 27.5882 23.125C27.5882 23.2908 27.5232 23.4497 27.4073 23.5669C27.2915 23.6842 27.1344 23.75 26.9706 23.75ZM31.2941 31.25C31.9494 31.25 32.5778 30.9866 33.0411 30.5178C33.5044 30.0489 33.7647 29.413 33.7647 28.75V27.5H31.2941V31.25ZM21.4118 19.375C21.4118 19.2092 21.4768 19.0503 21.5927 18.9331C21.7085 18.8158 21.8656 18.75 22.0294 18.75H26.9706C27.1344 18.75 27.2915 18.8158 27.4073 18.9331C27.5232 19.0503 27.5882 19.2092 27.5882 19.375C27.5882 19.5408 27.5232 19.6997 27.4073 19.8169C27.2915 19.9342 27.1344 20 26.9706 20H22.0294C21.8656 20 21.7085 19.9342 21.5927 19.8169C21.4768 19.6997 21.4118 19.5408 21.4118 19.375ZM25.1176 29.375C25.1176 30.8668 24.532 32.2976 23.4895 33.3525C22.447 34.4074 21.0331 35 19.5588 35C18.0845 35 16.6706 34.4074 15.6281 33.3525C14.5857 32.2976 14 30.8668 14 29.375C14 27.8832 14.5857 26.4524 15.6281 25.3975C16.6706 24.3426 18.0845 23.75 19.5588 23.75C21.0331 23.75 22.447 24.3426 23.4895 25.3975C24.532 26.4524 25.1176 27.8832 25.1176 29.375ZM20.1765 26.875C20.1765 26.7092 20.1114 26.5503 19.9956 26.4331C19.8797 26.3158 19.7226 26.25 19.5588 26.25C19.395 26.25 19.2379 26.3158 19.1221 26.4331C19.0062 26.5503 18.9412 26.7092 18.9412 26.875V28.75H17.0882C16.9244 28.75 16.7673 28.8158 16.6515 28.9331C16.5357 29.0503 16.4706 29.2092 16.4706 29.375C16.4706 29.5408 16.5357 29.6997 16.6515 29.8169C16.7673 29.9342 16.9244 30 17.0882 30H18.9412V31.875C18.9412 32.0408 19.0062 32.1997 19.1221 32.3169C19.2379 32.4342 19.395 32.5 19.5588 32.5C19.7226 32.5 19.8797 32.4342 19.9956 32.3169C20.1114 32.1997 20.1765 32.0408 20.1765 31.875V30H22.0294C22.1932 30 22.3503 29.9342 22.4662 29.8169C22.582 29.6997 22.6471 29.5408 22.6471 29.375C22.6471 29.2092 22.582 29.0503 22.4662 28.9331C22.3503 28.8158 22.1932 28.75 22.0294 28.75H20.1765V26.875Z" fill="white"/>
</svg>
